<svg xmlns="http://www.w3.org/2000/svg" width="640" height="320">
  <rect width="640" height="320" fill="#2E3034" />
  <g transform="translate(200 40)">
    <rect width="240" height="240" fill="#14161a" />
    <g fill="#2E3034" transform="translate(10 10) scale(2)">
      <polygon points="59.7 44.4 53.2 38.4 24.8 38.4 31.3 44.4" />
      <polygon points="31.3 23.3 24.8 29.3 53.2 29.3 59.7 23.3" />
      <polygon points="59.7 14.2 53.2 8.2 24.8 8.2 31.3 14.2" />
      <path d="M21.9 20.2l-4.3-4.3-15.8 15.8c-0.6 0.6-0.9 1.3-0.9 2.1 0 0.8 0.3 1.6 0.9 2.1l15.8 15.8 4.3-4.3-13.7-13.7 13.7-13.7z" />
      <path d="M82.8 16.6l-15.8-15.8-4.3 4.3 13.7 13.7-13.7 13.7 4.3 4.3 15.8-15.8c0.6-0.6 0.9-1.3 0.9-2.1 0-0.8-0.3-1.6-0.9-2.1" />
    </g>
    <g fill="#fff" transform="translate(40 174) scale(2)">
      <path d="M 58.32 0 L 62.32 0 L 62.32 28 L 59.04 28 L 42.24 7.12 L 42.24 28 L 38.24 28 L 38.24 0 L 41.52 0 L 58.32 20.88 L 58.32 0 Z M 15.44 24.52 L 31.76 24.52 L 31.76 28 L 11.44 28 L 11.44 0 L 31.2 0 L 31.2 3.48 L 15.44 3.48 L 15.44 12.08 L 29.48 12.08 L 29.48 15.48 L 15.44 15.48 L 15.44 24.52 Z M 91.04 0 L 95.04 0 L 82.76 28 L 78.8 28 L 66.48 0 L 70.8 0 L 80.88 23 L 91.04 0 Z M 2.72 28.24 Q 1.6 28.24 0.8 27.46 Q 0 26.68 0 25.48 A 2.761 2.761 0 0 1 0.206 24.4 A 2.604 2.604 0 0 1 0.8 23.54 Q 1.6 22.76 2.72 22.76 A 2.718 2.718 0 0 1 3.765 22.956 A 2.547 2.547 0 0 1 4.6 23.52 A 2.563 2.563 0 0 1 5.342 25.116 A 3.488 3.488 0 0 1 5.36 25.48 A 3.02 3.02 0 0 1 5.206 26.465 A 2.571 2.571 0 0 1 4.58 27.46 A 2.627 2.627 0 0 1 3.608 28.091 A 2.603 2.603 0 0 1 2.72 28.24 Z" vector-effect="non-scaling-stroke"/>
    </g>
  </g>
</svg>
